<mxfile host="app.diagrams.net" modified="2021-11-11T19:06:43.916Z" agent="5.0 (Macintosh; Intel Mac OS X 10_15_7) AppleWebKit/537.36 (KHTML, like Gecko) Chrome/93.0.4577.82 YaBrowser/21.9.0.1488 Yowser/2.5 Safari/537.36" etag="mHxBFT8VE-pwjRJybVhB" version="15.7.3" type="github">
  <diagram name="Page-1" id="c37626ed-c26b-45fb-9056-f9ebc6bb27b6">
    <mxGraphModel dx="1572" dy="1048" grid="1" gridSize="10" guides="1" tooltips="1" connect="1" arrows="1" fold="1" page="1" pageScale="1" pageWidth="1100" pageHeight="850" background="none" math="0" shadow="0">
      <root>
        <mxCell id="0" />
        <mxCell id="1" parent="0" />
        <mxCell id="PxXhfYdOt0HMLkNPLdq_-43" value="" style="rounded=0;whiteSpace=wrap;html=1;" vertex="1" parent="1">
          <mxGeometry x="65" y="46" width="195" height="104" as="geometry" />
        </mxCell>
        <mxCell id="PxXhfYdOt0HMLkNPLdq_-38" value="" style="rounded=0;whiteSpace=wrap;html=1;" vertex="1" parent="1">
          <mxGeometry x="410" y="46" width="660" height="264" as="geometry" />
        </mxCell>
        <mxCell id="PxXhfYdOt0HMLkNPLdq_-40" value="" style="rounded=0;whiteSpace=wrap;html=1;" vertex="1" parent="1">
          <mxGeometry x="420" y="210" width="150" height="90" as="geometry" />
        </mxCell>
        <mxCell id="PxXhfYdOt0HMLkNPLdq_-27" value="" style="rounded=0;whiteSpace=wrap;html=1;" vertex="1" parent="1">
          <mxGeometry x="59" y="488" width="370" height="120" as="geometry" />
        </mxCell>
        <mxCell id="PxXhfYdOt0HMLkNPLdq_-30" value="" style="rounded=0;whiteSpace=wrap;html=1;" vertex="1" parent="1">
          <mxGeometry x="59" y="328" width="370" height="132" as="geometry" />
        </mxCell>
        <mxCell id="PxXhfYdOt0HMLkNPLdq_-32" style="rounded=0;orthogonalLoop=1;jettySize=auto;html=1;endArrow=baseDash;endFill=0;" edge="1" parent="1" source="PxXhfYdOt0HMLkNPLdq_-2" target="PxXhfYdOt0HMLkNPLdq_-4">
          <mxGeometry relative="1" as="geometry" />
        </mxCell>
        <mxCell id="PxXhfYdOt0HMLkNPLdq_-33" style="rounded=0;orthogonalLoop=1;jettySize=auto;html=1;endArrow=baseDash;endFill=0;" edge="1" parent="1" source="PxXhfYdOt0HMLkNPLdq_-3" target="PxXhfYdOt0HMLkNPLdq_-4">
          <mxGeometry relative="1" as="geometry">
            <mxPoint x="174" y="436" as="sourcePoint" />
            <mxPoint x="174" y="538" as="targetPoint" />
            <Array as="points" />
          </mxGeometry>
        </mxCell>
        <mxCell id="PxXhfYdOt0HMLkNPLdq_-35" style="rounded=0;orthogonalLoop=1;jettySize=auto;html=1;endArrow=baseDash;endFill=0;" edge="1" parent="1" source="PxXhfYdOt0HMLkNPLdq_-2" target="PxXhfYdOt0HMLkNPLdq_-11">
          <mxGeometry relative="1" as="geometry">
            <mxPoint x="184" y="446" as="sourcePoint" />
            <mxPoint x="184" y="548" as="targetPoint" />
          </mxGeometry>
        </mxCell>
        <mxCell id="PxXhfYdOt0HMLkNPLdq_-36" style="rounded=0;orthogonalLoop=1;jettySize=auto;html=1;endArrow=baseDash;endFill=0;" edge="1" parent="1" source="PxXhfYdOt0HMLkNPLdq_-3" target="PxXhfYdOt0HMLkNPLdq_-11">
          <mxGeometry relative="1" as="geometry">
            <mxPoint x="194" y="456" as="sourcePoint" />
            <mxPoint x="194" y="558" as="targetPoint" />
          </mxGeometry>
        </mxCell>
        <mxCell id="PxXhfYdOt0HMLkNPLdq_-2" value="" style="shape=mxgraph.cisco.controllers_and_modules.service_module;sketch=0;html=1;pointerEvents=1;dashed=0;fillColor=#036897;strokeColor=#ffffff;strokeWidth=2;verticalLabelPosition=bottom;verticalAlign=top;align=center;outlineConnect=0;" vertex="1" parent="1">
          <mxGeometry x="139" y="340" width="70" height="96" as="geometry" />
        </mxCell>
        <mxCell id="PxXhfYdOt0HMLkNPLdq_-3" value="" style="shape=mxgraph.cisco.controllers_and_modules.service_module;sketch=0;html=1;pointerEvents=1;dashed=0;fillColor=#036897;strokeColor=#ffffff;strokeWidth=2;verticalLabelPosition=bottom;verticalAlign=top;align=center;outlineConnect=0;" vertex="1" parent="1">
          <mxGeometry x="269" y="340" width="70" height="96" as="geometry" />
        </mxCell>
        <mxCell id="PxXhfYdOt0HMLkNPLdq_-4" value="" style="shape=mxgraph.cisco.switches.workgroup_switch;sketch=0;html=1;pointerEvents=1;dashed=0;fillColor=#036897;strokeColor=#ffffff;strokeWidth=2;verticalLabelPosition=bottom;verticalAlign=top;align=center;outlineConnect=0;" vertex="1" parent="1">
          <mxGeometry x="129" y="538" width="90" height="40" as="geometry" />
        </mxCell>
        <mxCell id="PxXhfYdOt0HMLkNPLdq_-7" value="" style="shape=mxgraph.cisco.routers.router;sketch=0;html=1;pointerEvents=1;dashed=0;fillColor=#036897;strokeColor=#ffffff;strokeWidth=2;verticalLabelPosition=bottom;verticalAlign=top;align=center;outlineConnect=0;" vertex="1" parent="1">
          <mxGeometry x="840" y="70" width="78" height="53" as="geometry" />
        </mxCell>
        <mxCell id="PxXhfYdOt0HMLkNPLdq_-8" value="" style="shape=mxgraph.cisco.routers.router;sketch=0;html=1;pointerEvents=1;dashed=0;fillColor=#036897;strokeColor=#ffffff;strokeWidth=2;verticalLabelPosition=bottom;verticalAlign=top;align=center;outlineConnect=0;" vertex="1" parent="1">
          <mxGeometry x="840" y="137" width="78" height="53" as="geometry" />
        </mxCell>
        <mxCell id="PxXhfYdOt0HMLkNPLdq_-9" value="" style="shape=mxgraph.cisco.security.firewall;sketch=0;html=1;pointerEvents=1;dashed=0;fillColor=#036897;strokeColor=#ffffff;strokeWidth=2;verticalLabelPosition=bottom;verticalAlign=top;align=center;outlineConnect=0;" vertex="1" parent="1">
          <mxGeometry x="620" y="137" width="29" height="67" as="geometry" />
        </mxCell>
        <mxCell id="PxXhfYdOt0HMLkNPLdq_-10" value="" style="shape=mxgraph.cisco.security.firewall;sketch=0;html=1;pointerEvents=1;dashed=0;fillColor=#036897;strokeColor=#ffffff;strokeWidth=2;verticalLabelPosition=bottom;verticalAlign=top;align=center;outlineConnect=0;" vertex="1" parent="1">
          <mxGeometry x="620" y="56" width="29" height="67" as="geometry" />
        </mxCell>
        <mxCell id="PxXhfYdOt0HMLkNPLdq_-14" value="" style="shape=mxgraph.cisco.switches.workgroup_switch;sketch=0;html=1;pointerEvents=1;dashed=0;fillColor=#036897;strokeColor=#ffffff;strokeWidth=2;verticalLabelPosition=bottom;verticalAlign=top;align=center;outlineConnect=0;" vertex="1" parent="1">
          <mxGeometry x="450" y="235" width="90" height="40" as="geometry" />
        </mxCell>
        <mxCell id="PxXhfYdOt0HMLkNPLdq_-15" value="" style="shape=mxgraph.cisco.switches.workgroup_switch;sketch=0;html=1;pointerEvents=1;dashed=0;fillColor=#036897;strokeColor=#ffffff;strokeWidth=2;verticalLabelPosition=bottom;verticalAlign=top;align=center;outlineConnect=0;" vertex="1" parent="1">
          <mxGeometry x="840" y="580" width="90" height="40" as="geometry" />
        </mxCell>
        <mxCell id="PxXhfYdOt0HMLkNPLdq_-16" value="" style="shape=mxgraph.cisco.switches.workgroup_switch;sketch=0;html=1;pointerEvents=1;dashed=0;fillColor=#036897;strokeColor=#ffffff;strokeWidth=2;verticalLabelPosition=bottom;verticalAlign=top;align=center;outlineConnect=0;" vertex="1" parent="1">
          <mxGeometry x="575" y="690" width="90" height="40" as="geometry" />
        </mxCell>
        <mxCell id="PxXhfYdOt0HMLkNPLdq_-17" value="" style="shape=mxgraph.cisco.switches.workgroup_switch;sketch=0;html=1;pointerEvents=1;dashed=0;fillColor=#036897;strokeColor=#ffffff;strokeWidth=2;verticalLabelPosition=bottom;verticalAlign=top;align=center;outlineConnect=0;" vertex="1" parent="1">
          <mxGeometry x="715" y="690" width="90" height="40" as="geometry" />
        </mxCell>
        <mxCell id="PxXhfYdOt0HMLkNPLdq_-18" value="" style="shape=mxgraph.cisco.switches.workgroup_switch;sketch=0;html=1;pointerEvents=1;dashed=0;fillColor=#036897;strokeColor=#ffffff;strokeWidth=2;verticalLabelPosition=bottom;verticalAlign=top;align=center;outlineConnect=0;" vertex="1" parent="1">
          <mxGeometry x="845" y="690" width="90" height="40" as="geometry" />
        </mxCell>
        <mxCell id="PxXhfYdOt0HMLkNPLdq_-19" value="" style="shape=mxgraph.cisco.switches.workgroup_switch;sketch=0;html=1;pointerEvents=1;dashed=0;fillColor=#036897;strokeColor=#ffffff;strokeWidth=2;verticalLabelPosition=bottom;verticalAlign=top;align=center;outlineConnect=0;" vertex="1" parent="1">
          <mxGeometry x="450" y="76.5" width="90" height="40" as="geometry" />
        </mxCell>
        <mxCell id="PxXhfYdOt0HMLkNPLdq_-20" value="" style="shape=mxgraph.cisco.switches.workgroup_switch;sketch=0;html=1;pointerEvents=1;dashed=0;fillColor=#036897;strokeColor=#ffffff;strokeWidth=2;verticalLabelPosition=bottom;verticalAlign=top;align=center;outlineConnect=0;" vertex="1" parent="1">
          <mxGeometry x="450" y="143.5" width="90" height="40" as="geometry" />
        </mxCell>
        <mxCell id="PxXhfYdOt0HMLkNPLdq_-21" value="" style="shape=mxgraph.cisco.switches.workgroup_switch;sketch=0;html=1;pointerEvents=1;dashed=0;fillColor=#036897;strokeColor=#ffffff;strokeWidth=2;verticalLabelPosition=bottom;verticalAlign=top;align=center;outlineConnect=0;" vertex="1" parent="1">
          <mxGeometry x="690" y="150" width="90" height="40" as="geometry" />
        </mxCell>
        <mxCell id="PxXhfYdOt0HMLkNPLdq_-22" value="" style="shape=mxgraph.cisco.switches.workgroup_switch;sketch=0;html=1;pointerEvents=1;dashed=0;fillColor=#036897;strokeColor=#ffffff;strokeWidth=2;verticalLabelPosition=bottom;verticalAlign=top;align=center;outlineConnect=0;" vertex="1" parent="1">
          <mxGeometry x="690" y="76.5" width="90" height="40" as="geometry" />
        </mxCell>
        <mxCell id="PxXhfYdOt0HMLkNPLdq_-24" value="" style="shape=mxgraph.cisco.switches.workgroup_switch;sketch=0;html=1;pointerEvents=1;dashed=0;fillColor=#036897;strokeColor=#ffffff;strokeWidth=2;verticalLabelPosition=bottom;verticalAlign=top;align=center;outlineConnect=0;" vertex="1" parent="1">
          <mxGeometry x="960" y="150.5" width="90" height="40" as="geometry" />
        </mxCell>
        <mxCell id="PxXhfYdOt0HMLkNPLdq_-25" value="" style="shape=mxgraph.cisco.switches.workgroup_switch;sketch=0;html=1;pointerEvents=1;dashed=0;fillColor=#036897;strokeColor=#ffffff;strokeWidth=2;verticalLabelPosition=bottom;verticalAlign=top;align=center;outlineConnect=0;" vertex="1" parent="1">
          <mxGeometry x="960" y="76.5" width="90" height="40" as="geometry" />
        </mxCell>
        <mxCell id="PxXhfYdOt0HMLkNPLdq_-29" value="Уровень периметра" style="text;html=1;strokeColor=none;fillColor=none;align=center;verticalAlign=middle;whiteSpace=wrap;rounded=0;" vertex="1" parent="1">
          <mxGeometry x="830" y="260" width="220" height="30" as="geometry" />
        </mxCell>
        <mxCell id="PxXhfYdOt0HMLkNPLdq_-31" value="Уровень ядра" style="text;html=1;strokeColor=none;fillColor=none;align=center;verticalAlign=middle;whiteSpace=wrap;rounded=0;" vertex="1" parent="1">
          <mxGeometry x="59" y="290" width="100" height="30" as="geometry" />
        </mxCell>
        <mxCell id="PxXhfYdOt0HMLkNPLdq_-11" value="" style="shape=mxgraph.cisco.switches.workgroup_switch;sketch=0;html=1;pointerEvents=1;dashed=0;fillColor=#036897;strokeColor=#ffffff;strokeWidth=2;verticalLabelPosition=bottom;verticalAlign=top;align=center;outlineConnect=0;" vertex="1" parent="1">
          <mxGeometry x="259" y="538" width="90" height="40" as="geometry" />
        </mxCell>
        <mxCell id="PxXhfYdOt0HMLkNPLdq_-37" value="" style="shape=mxgraph.cisco.switches.workgroup_switch;sketch=0;html=1;pointerEvents=1;dashed=0;fillColor=#036897;strokeColor=#ffffff;strokeWidth=2;verticalLabelPosition=bottom;verticalAlign=top;align=center;outlineConnect=0;" vertex="1" parent="1">
          <mxGeometry x="80" y="76.5" width="90" height="40" as="geometry" />
        </mxCell>
        <mxCell id="PxXhfYdOt0HMLkNPLdq_-41" value="DMZ" style="text;html=1;strokeColor=none;fillColor=none;align=center;verticalAlign=middle;whiteSpace=wrap;rounded=0;" vertex="1" parent="1">
          <mxGeometry x="525" y="270" width="45" height="30" as="geometry" />
        </mxCell>
        <mxCell id="PxXhfYdOt0HMLkNPLdq_-42" value="" style="rounded=0;whiteSpace=wrap;html=1;" vertex="1" parent="1">
          <mxGeometry x="360" y="280" width="120" height="60" as="geometry" />
        </mxCell>
      </root>
    </mxGraphModel>
  </diagram>
</mxfile>
